<svg width="11" height="10" viewBox="0 0 11 10" fill="none" xmlns="http://www.w3.org/2000/svg">
<path d="M8.71233 1.21163C8.88842 1.04399 9.12274 0.951312 9.36585 0.953152C9.60897 0.954991 9.84186 1.0512 10.0154 1.22149C10.1889 1.39177 10.2895 1.62281 10.2959 1.86585C10.3024 2.10888 10.2141 2.34491 10.0498 2.52413L5.06233 8.76163C4.97657 8.854 4.87306 8.92813 4.758 8.97959C4.64293 9.03104 4.51867 9.05877 4.39264 9.0611C4.26662 9.06343 4.14142 9.04033 4.02453 8.99317C3.90763 8.94601 3.80145 8.87576 3.71233 8.78663L0.404831 5.47913C0.312722 5.3933 0.238845 5.2898 0.187605 5.1748C0.136365 5.0598 0.108812 4.93566 0.106591 4.80978C0.10437 4.6839 0.127526 4.55887 0.174678 4.44213C0.221829 4.3254 0.29201 4.21935 0.381033 4.13033C0.470057 4.04131 0.576099 3.97113 0.692834 3.92398C0.809569 3.87682 0.934606 3.85367 1.06048 3.85589C1.18636 3.85811 1.3105 3.88566 1.4255 3.9369C1.5405 3.98814 1.644 4.06202 1.72983 4.15413L4.34733 6.77038L8.68858 1.23913C8.6964 1.22951 8.70474 1.22032 8.71358 1.21163H8.71233Z" fill="white"/>
</svg>
