<svg width="14" height="16" viewBox="0 0 14 16" fill="none" xmlns="http://www.w3.org/2000/svg">
<path d="M2.68 0.00405721C2.41478 0.0464811 2.17729 0.192498 2.01976 0.409985C1.86223 0.627472 1.79757 0.898614 1.84 1.16376C1.88243 1.42891 2.02849 1.66635 2.24603 1.82384C2.46357 1.98133 2.73478 2.04597 3 2.00355H4V6.00254H2C0.9 6.00254 0 6.90231 0 8.00203H6V14.0005L6.88 16L8 14.0005V8.00203H14C14 6.90231 13.1 6.00254 12 6.00254H10V2.00355H11C11.2652 2.00355 11.5196 1.89822 11.7071 1.71073C11.8946 1.52324 12 1.26895 12 1.0038C12 0.738654 11.8946 0.484365 11.7071 0.296876C11.5196 0.109387 11.2652 0.00405721 11 0.00405721H3C2.94012 -0.0013524 2.87988 -0.0013524 2.82 0.00405721C2.78004 0.00165565 2.73996 0.00165565 2.7 0.00405721L2.68 0.00405721Z" fill="white" fill-opacity="0.5"/>
</svg>
